<?xml version="1.0" encoding="utf-8"?>
<!-- Generator: Adobe Illustrator 21.0.0, SVG Export Plug-In . SVG Version: 6.00 Build 0)  -->
<svg version="1.1" id="圖層_1" xmlns="http://www.w3.org/2000/svg" xmlns:xlink="http://www.w3.org/1999/xlink" x="0px" y="0px"
	 viewBox="0 0 90.9 87" style="enable-background:new 0 0 90.9 87;" xml:space="preserve">
<style type="text/css">
	.st0{fill-rule:evenodd;clip-rule:evenodd;fill:#E1690E;}
	.st1{fill:#E1690E;}
</style>
<g>
	<path class="st0" d="M84.8,33.2l-7.1,2.2l2.9,5.8c1.1,2.1,1.8,4.8,1.9,7c0,1.4-0.1,4-0.3,6.4h0v0.8c-0.1,1.5-0.2,2.9-0.2,4
		c-0.1,1.7-1.1,3.8-2.4,3.9c-17.1,1.6-25.8,2.4-34.4,2.4c-8.7,0-17.7-0.8-35.7-2.5c-0.8-0.1-1.5-1.7-1.7-3.2c-0.2-1.1-0.3-3-0.4-4.9
		v-0.5h0c-0.1-2.4-0.1-4.8-0.1-6.2c0.1-1.6,0.7-4.2,1.8-6.7l3.1-5.6l-5.9-1.9c-0.4-0.1-0.8-0.4-0.9-0.8c-0.2-0.4-0.3-0.8-0.1-1.2
		c0.3-0.9,1.2-1.3,2.1-1.1l6.5,2.1l0.5-1.1c7.7,1.7,17.4,1.9,27.8,1.9l4.1,0h4.1c5.5,0,16.4,0,25.9-2.6l0.4,1l7.4-2.4
		c0.8-0.3,1.8,0.2,2.1,1.1C86.1,32,85.6,32.9,84.8,33.2z M82.1,70.5v0.2c0,0.7,0,1.7-0.1,2.2h-8.8c-0.1-0.5-0.1-1.5-0.1-2.2v-0.2
		v-1.6l6.9-0.7c0.8-0.1,1.4-0.3,2.1-0.6L82.1,70.5z M16.4,70.6c0,0.7,0,1.7-0.1,2.2H7.4c-0.1-0.5-0.1-1.5-0.1-2.2l0-2.9
		c0.5,0.2,1,0.3,1.6,0.4l7.4,0.7v1.6V70.6z M20.4,17.7c5.6-2.3,13.8-3.5,23.2-3.5c9.6,0,19.3,1.3,25.9,3.6l5.2,11
		C65.7,31,55.3,31,50.1,31H46c-11.5,0-22.3,0-30.7-1.7L20.4,17.7z M90.6,29.6c-0.9-2.8-3.4-4.6-6.3-4.6c-0.7,0-1.4,0.1-2,0.3l-3.3,1
		l-6-12.7L71,13c-7.1-2.4-17.4-3.8-27.5-3.8c-10,0-18.9,1.4-25.1,3.9l-1.8,0.8l-5.7,13.3l-2.2-0.7c-0.6-0.2-1.3-0.3-2-0.3
		c-2.9,0-5.4,1.9-6.3,4.6c-0.5,1.7-0.4,3.5,0.4,5C1.6,37.3,3,38.5,4.6,39l0.2,0l-0.2,0.4c-1.3,2.8-2.3,6.2-2.4,8.8
		c0,1.4,0,4.3,0.1,7l0.1,15.2v0.2c0,1.5,0,2.9,0.5,4.2c0.7,1.9,2.3,3,4.5,3h9c2.2,0,3.8-1.1,4.5-3c0.5-1.3,0.5-2.7,0.5-4.2v-0.2
		v-1.2c10.4,0.9,17.1,1.4,23.7,1.4c6.6,0,13.1-0.4,23-1.3v1.2v0.2c0,1.5,0,2.9,0.5,4.2c0.7,1.9,2.4,3,4.5,3h9c2.2,0,3.8-1.1,4.5-3
		c0.5-1.3,0.5-2.7,0.5-4.2l0.1-15.1l0-0.1c0.2-2.8,0.4-5.7,0.4-7.4c-0.1-2.9-1-6.4-2.5-9.1l-0.2-0.5l1.5-0.5
		C89.8,36.8,91.7,33.1,90.6,29.6z"/>
	<path class="st0" d="M17,53.9c-1.8,0-3.2-1.4-3.2-3.2c0-1.8,1.4-3.2,3.2-3.2c1.8,0,3.2,1.4,3.2,3.2C20.2,52.5,18.7,53.9,17,53.9z
		 M17,44.5c-3.4,0-6.2,2.8-6.2,6.2s2.8,6.2,6.2,6.2c3.4,0,6.2-2.8,6.2-6.2S20.4,44.5,17,44.5z"/>
	<path class="st0" d="M72.6,53.9c-1.8,0-3.2-1.4-3.2-3.2c0-1.8,1.4-3.2,3.2-3.2s3.2,1.4,3.2,3.2C75.8,52.5,74.4,53.9,72.6,53.9z
		 M72.6,44.5c-3.4,0-6.2,2.8-6.2,6.2s2.8,6.2,6.2,6.2c3.4,0,6.2-2.8,6.2-6.2S76.1,44.5,72.6,44.5z"/>
	<rect x="27.9" y="55" class="st1" width="34.3" height="3"/>
	<rect x="27.9" y="46.1" class="st1" width="34.3" height="3"/>
</g>
</svg>
