<?xml version="1.0" encoding="utf-8"?>
<!-- Generator: Adobe Illustrator 21.0.0, SVG Export Plug-In . SVG Version: 6.00 Build 0)  -->
<svg version="1.1" id="圖層_1" xmlns="http://www.w3.org/2000/svg" xmlns:xlink="http://www.w3.org/1999/xlink" x="0px" y="0px"
	 viewBox="0 0 90.9 87" style="enable-background:new 0 0 90.9 87;" xml:space="preserve">
<style type="text/css">
	.st0{fill-rule:evenodd;clip-rule:evenodd;fill:#E1690E;}
</style>
<path class="st0" d="M82.7,80.7L58.6,41.8l3.2-3l9.6,19c0.2,0.5,0.7,0.8,1.2,0.8c0.2,0,0.4,0,0.6-0.1c0.7-0.3,1-1.2,0.6-1.9
	l-9.9-19.7l3.9-3.7l16.3,45.7L82.7,80.7z M24,64.9c5.4-8.6,26.5-31.9,46.1-51.8c1.7-1.7,3.7-2.7,5.6-2.7c0.9,0,1.6,0.3,2.1,0.7
	c1.2,1.2,1.2,4.6-2,7.7C61.6,33.3,33.7,58.9,24,64.9z M34.9,78.1l-6.1-10.9c1.4-1,3.1-2.2,5.1-3.8l1.9,14L34.9,78.1z M21.8,60
	l-10.9-6l0.7-0.8L25.6,55c-0.8,1.1-1.6,2.1-2.3,3C22.8,58.7,22.3,59.4,21.8,60z M8.3,6.3l1.8-1.4l46.4,15.6
	c-1.5,1.6-3.1,3.2-4.7,4.9L28,13c-0.7-0.4-1.5-0.1-1.9,0.6c-0.4,0.7-0.1,1.5,0.6,1.9l23.2,12.1l-2.8,3L8.3,6.3z M88.8,78.5
	L71.4,29.6c3.2-3.1,5.9-5.7,7.7-7.5c5-5.1,5-11.2,2-14.2c-1.3-1.3-3.2-2.1-5.4-2.1c-3,0-6.3,1.5-8.8,4.1c-1.7,1.8-4.1,4.2-6.8,7
	L10.4,0.1C9.7-0.1,8.9,0,8.3,0.5L2.9,4.7C2.3,5.1,1.9,5.9,2,6.6c0,0.8,0.4,1.4,1.1,1.8L43.9,34c-2.1,2.3-4.3,4.7-6.3,7
	c-3.2,3.6-6.1,6.9-8.5,9.8l-18.2-2.3c-0.8-0.1-1.6,0.2-2.1,0.8l-3.2,4c-0.4,0.5-0.6,1.2-0.5,1.9c0.1,0.7,0.6,1.2,1.2,1.6l13.1,7.1
	c-1.4,2.7-1.7,4.6-0.3,6c0.4,0.4,1.1,0.9,2.3,0.9h0c0.6,0,1.4,0,3.5-1.1l7.3,13c0.3,0.6,0.9,1,1.6,1.1c0.1,0,0.3,0,0.4,0
	c0.5,0,1-0.2,1.4-0.5l4-3.2c0.6-0.5,1-1.3,0.8-2.1L38.1,60c3.2-2.6,6.9-5.9,11.5-9.9c1.8-1.6,3.7-3.3,5.6-5l25.4,40.9
	c0.4,0.6,1.1,1,1.8,1.1h0.1c0.7,0,1.4-0.3,1.8-0.9l4.2-5.4C89,80.1,89.1,79.2,88.8,78.5z"/>
</svg>
