<?xml version="1.0" encoding="utf-8"?>
<!-- Generator: Adobe Illustrator 21.0.0, SVG Export Plug-In . SVG Version: 6.00 Build 0)  -->
<svg version="1.1" id="圖層_1" xmlns="http://www.w3.org/2000/svg" xmlns:xlink="http://www.w3.org/1999/xlink" x="0px" y="0px"
	 viewBox="0 0 90.9 87" style="enable-background:new 0 0 90.9 87;" xml:space="preserve">
<style type="text/css">
	.st0{fill-rule:evenodd;clip-rule:evenodd;fill:#E1690E;}
</style>
<g>
	<path class="st0" d="M69.3,44l0,0.9H21.6l0-1c0-1.3,0-2.8,0-3.8l1.5-15.9h44.8l1.5,15.9L69.3,44z M68.6,64.7
		c-1,0.4-2.1,0.8-3.4,1.1l-1,0.2l-2.9,0.6c-0.4,0.1-0.8,0.1-1.2,0.2c-4.4,0.7-9.4,1.1-14.5,1.1c-5.4,0-10.6-0.4-15.1-1.2l-0.8-0.1
		l-3.3-0.7l-0.6-0.1c-1.2-0.3-2.4-0.7-3.4-1.1c-0.6-0.2-0.8-0.5-0.7-2.5l0-0.6V47.4h47.7v14.2l0,0.6C69.4,64.1,69.2,64.4,68.6,64.7z
		 M26.6,76.3l2.3-5.7c5,0.9,10.8,1.4,16.7,1.4c5.7,0,11.3-0.5,16.1-1.3l2.3,5.7H26.6z M23.5,19.4c0.2-0.4,1.9-4.2,13.7-5.4l16.4,0
		c12.6,1.3,13.7,5.5,13.7,5.7l0.2,2H23.3L23.5,19.4z M39.2,4.6h12.5v5.3l-12.5,0V4.6z M73.4,61.6V46.3l0-2.3l0-4l-1.9-20.6
		c-0.1-1.1-1.2-7.3-15.7-9.3V4.6h4.5c1.1,0,2.1-0.9,2.1-2.1s-0.9-2.1-2.1-2.1H30.8c-1.1,0-2.1,0.9-2.1,2.1s0.9,2.1,2.1,2.1h4.3v5.5
		c-14,1.9-15.5,7.6-15.6,8.8l-2,20.9l0,0.2c0,1,0,2.6,0,3.9l0,2.4v15.3l0,0.5c0,1.8-0.1,5.1,3.4,6.4c1.1,0.4,2.4,0.8,3.9,1.2l0,0
		l-5.6,13.9c-0.4,1.1,0.1,2.3,1.1,2.7c0.3,0.1,0.5,0.2,0.8,0.2c0.8,0,1.6-0.5,1.9-1.3l1.9-4.7h40.7l1.9,4.7c0.3,0.8,1.1,1.3,1.9,1.3
		c0.3,0,0.5-0.1,0.8-0.2c1.1-0.4,1.6-1.6,1.1-2.7l-5.6-13.8l0.4-0.1l0.1,0c1.4-0.4,2.7-0.8,3.8-1.2c3.5-1.3,3.4-4.6,3.4-6.4V61.6z"
		/>
	<path class="st0" d="M61.2,59c0,0.7-0.5,1.3-1,1.3h-7.3c-0.5,0-1-0.6-1-1.3v-2.4c0-0.7,0.5-1.3,1-1.3h7.3c0.5,0,1,0.6,1,1.3V59z
		 M60.2,52.8h-7.3c-1.9,0-3.5,1.7-3.5,3.8V59c0,2.1,1.6,3.8,3.5,3.8h7.3c1.9,0,3.5-1.7,3.5-3.8v-2.4C63.7,54.5,62.1,52.8,60.2,52.8z
		"/>
	<path class="st0" d="M39.1,59c0,0.7-0.5,1.3-1,1.3h-7.3c-0.6,0-1-0.6-1-1.3v-2.4c0-0.7,0.5-1.3,1-1.3h7.3c0.6,0,1,0.6,1,1.3V59z
		 M38.1,52.8h-7.3c-1.9,0-3.5,1.7-3.5,3.8V59c0,2.1,1.6,3.8,3.5,3.8h7.3c1.9,0,3.5-1.7,3.5-3.8v-2.4C41.6,54.5,40,52.8,38.1,52.8z"
		/>
</g>
</svg>
