<?xml version="1.0" encoding="utf-8"?>
<svg version="1.1" xmlns="http://www.w3.org/2000/svg" xmlns:xlink="http://www.w3.org/1999/xlink" x="0px" y="0px"
	 viewBox="0 0 13.99 13" style="enable-background:new 0 0 13.99 13;" xml:space="preserve">
<path class="st0" d="M13.87,5.98L8.43,0.59c-0.79-0.79-2.07-0.79-2.86,0L0.13,5.98c-0.17,0.17-0.17,0.44,0,0.61
	c0.17,0.17,0.45,0.17,0.62,0l0.34-0.34v5.5c0,0.69,0.57,1.25,1.26,1.25h2.19c0.15,0,0.27-0.12,0.27-0.27V8.72
	c0-0.75,0.61-1.35,1.37-1.35h1.64c0.76,0,1.37,0.6,1.37,1.35v4.01c0,0.15,0.12,0.27,0.27,0.27h2.19c0.69,0,1.26-0.56,1.26-1.25v-5.5
	l0.34,0.34c0.09,0.08,0.2,0.13,0.31,0.13s0.23-0.05,0.31-0.13C14.04,6.42,14.04,6.15,13.87,5.98z"/>
</svg>
