<?xml version="1.0" encoding="utf-8"?>
<!-- Generator: Adobe Illustrator 21.0.0, SVG Export Plug-In . SVG Version: 6.00 Build 0)  -->
<svg version="1.1" id="圖層_1" xmlns="http://www.w3.org/2000/svg" xmlns:xlink="http://www.w3.org/1999/xlink" x="0px" y="0px"
	 viewBox="0 0 15 15" style="enable-background:new 0 0 15 15;" xml:space="preserve">

<path class="st0" d="M9.8,14.7c0.4-0.4,0.8-0.9,1.1-1.5c0.2-0.4,0.4-0.8,0.6-1.3h2.1C12.7,13.1,11.4,14.1,9.8,14.7z M1.3,11.8h2.1
	c0.2,0.5,0.4,0.9,0.6,1.3c0.3,0.6,0.7,1.1,1.2,1.5C3.6,14.1,2.3,13.1,1.3,11.8z M0,7.2C0,6,0.4,4.9,0.9,3.9h2.3
	c-0.3,1-0.5,2.1-0.5,3.3H0z M0,7.9h2.8c0,1.2,0.2,2.3,0.5,3.3H0.9C0.4,10.2,0.1,9.1,0,7.9z M5.2,0.3C4.8,0.7,4.4,1.3,4,1.9
	C3.8,2.3,3.6,2.8,3.4,3.3H1.3C2.2,1.9,3.6,0.9,5.2,0.3z M7.8,7.2V3.9h3.3c0.3,1,0.5,2.1,0.5,3.3H7.8z M7.8,11.2V7.9h3.8
	c0,1.2-0.2,2.3-0.5,3.3H7.8z M7.8,15v-3.2h3C10.2,13.6,9.1,14.8,7.8,15z M7.2,11.8V15c-1.3-0.2-2.4-1.4-3-3.2H7.2z M7.2,7.9v3.3H3.9
	c-0.3-1-0.5-2.1-0.5-3.3H7.2z M7.2,3.9v3.3H3.4c0-1.2,0.2-2.3,0.5-3.3H7.2z M7.2,0v3.3H4.1C4.8,1.4,5.9,0.2,7.2,0z M10.9,3.3H7.8V0
	C9.1,0.2,10.2,1.4,10.9,3.3z M13.7,3.3h-2.2c-0.2-0.5-0.4-1-0.6-1.4c-0.3-0.6-0.7-1.1-1.1-1.5C11.4,0.9,12.8,1.9,13.7,3.3z M15,7.9
	c-0.1,1.2-0.4,2.3-0.9,3.3h-2.3c0.3-1,0.5-2.1,0.5-3.3H15z M12.2,7.2c0-1.2-0.2-2.3-0.5-3.3h2.3C14.6,4.9,15,6,15,7.2H12.2z"/>
</svg>
