<?xml version="1.0" encoding="utf-8"?>
<!-- Generator: Adobe Illustrator 21.0.0, SVG Export Plug-In . SVG Version: 6.00 Build 0)  -->
<svg version="1.1" id="圖層_1" xmlns="http://www.w3.org/2000/svg" xmlns:xlink="http://www.w3.org/1999/xlink" x="0px" y="0px"
	 viewBox="0 0 20 22" style="enable-background:new 0 0 20 22;" xml:space="preserve">
<path d="M10,11.5c-2.1,0-3.8-1.7-3.8-3.9c0-2.1,1.7-3.8,3.8-3.8s3.8,1.7,3.8,3.8C13.8,9.8,12.1,11.5,10,11.5z M10,0
	C5.9,0,2.5,3.4,2.5,7.5c0,2.2,1.6,3.9,2.5,5.7c1.9,3.9,3.3,4.3,5,8.8c1.7-4.4,3-5.1,5-8.6c1-1.8,2.5-3.7,2.5-5.9
	C17.5,3.4,14.1,0,10,0z"/>
</svg>
